<svg width="91" height="91" viewBox="0 0 91 91" fill="none" xmlns="http://www.w3.org/2000/svg">
<path fill-rule="evenodd" clip-rule="evenodd" d="M34.6879 0.689824C22.5849 3.73782 9.74187 14.0678 4.67287 24.8348C-1.44913 37.8378 -1.55913 51.7578 4.36287 64.2278C17.9869 92.9158 55.1589 99.4878 77.4899 77.1568C99.8649 54.7818 93.2509 17.6548 64.4529 3.97882C57.7389 0.790824 55.7879 0.333824 47.6729 0.0518241C42.6219 -0.124176 36.7789 0.162824 34.6879 0.689824ZM63.2649 7.39782C71.7509 11.3778 78.7609 18.4158 83.1799 27.3908C86.3199 33.7688 86.4899 34.6818 86.4899 45.1358C86.4899 55.5178 86.3029 56.5378 83.2729 62.7308C79.1489 71.1568 71.4899 78.8158 63.0639 82.9398C56.8709 85.9698 55.8509 86.1568 45.4689 86.1568C35.0149 86.1568 34.1019 85.9868 27.7239 82.8468C18.7829 78.4448 11.7199 71.4218 7.69887 62.9318C4.69187 56.5838 4.48987 55.4648 4.48987 45.1568C4.48987 34.8608 4.69387 33.7258 7.68287 27.4158C12.7819 16.6528 21.7039 8.90382 33.4899 5.00382C35.9809 4.17982 41.0739 3.78182 46.9899 3.94982C55.2529 4.18482 57.3729 4.63382 63.2649 7.39782ZM35.9899 10.2418C23.8279 13.4568 13.5779 24.0208 10.3969 36.6208C8.31987 44.8478 9.09287 52.1008 12.9219 60.3078C23.5479 83.0808 53.1109 88.2998 70.8719 70.5388C82.0289 59.3828 84.6849 42.8548 77.5749 28.8248C74.6139 22.9808 68.9209 16.6568 66.6219 16.6568C63.9159 16.6568 64.7669 19.0328 68.9279 23.0968C74.9339 28.9608 77.4589 35.5188 77.4219 45.1568C77.3999 51.1068 76.8509 54.3548 75.2799 57.8328C72.3059 64.4168 65.7429 71.1418 59.1359 74.3738C51.5259 78.0968 40.0309 78.3028 32.4899 74.8518C25.9409 71.8548 18.6689 64.6118 15.8199 58.2488C12.4349 50.6878 12.5609 39.1428 16.1109 31.5708C21.2739 20.5558 31.3239 13.8118 43.8509 12.9538C52.8749 12.3368 54.0249 11.9078 51.5489 10.0858C49.1169 8.29582 43.1269 8.35582 35.9899 10.2418ZM56.6169 11.3638C55.3459 12.6338 56.0509 14.3628 58.2399 15.3448C60.6479 16.4248 62.9899 16.0568 62.9899 14.5988C62.9899 13.4028 57.4099 10.5698 56.6169 11.3638ZM43.9899 21.6568C43.9899 23.6568 44.4899 24.6568 45.4899 24.6568C46.4899 24.6568 46.9899 23.6568 46.9899 21.6568C46.9899 19.6568 46.4899 18.6568 45.4899 18.6568C44.4899 18.6568 43.9899 19.6568 43.9899 21.6568ZM34.5349 22.9068C35.5199 26.1678 36.7899 27.2568 38.0889 25.9578C39.7269 24.3198 38.1829 20.6568 35.8549 20.6568C34.2459 20.6568 33.9879 21.0968 34.5349 22.9068ZM26.5469 26.5648C26.1999 27.1258 26.8779 28.5448 28.0539 29.7208C30.6349 32.3018 33.2339 30.8548 31.3599 27.8788C30.0779 25.8438 27.4379 25.1228 26.5469 26.5648ZM33.0819 33.0588C31.7199 34.5088 30.9569 36.3918 31.1579 37.8088C31.5979 40.9228 34.2439 40.8178 34.9899 37.6568C35.4549 35.6878 36.2069 35.1568 38.5349 35.1568C41.1609 35.1568 41.5259 35.5328 41.8129 38.5348C42.0849 41.3858 41.5749 42.3738 38.5419 44.8748C32.0499 50.2258 29.7429 58.0548 34.3199 59.2038C38.5439 60.2638 45.4899 59.3018 45.4899 57.6568C45.4899 56.5768 44.1599 56.0718 40.7399 55.8518C34.5039 55.4518 34.5529 53.7998 40.9899 47.5628C45.1549 43.5278 45.9899 42.1208 45.9899 39.1418C45.9899 31.8278 37.8449 27.9888 33.0819 33.0588ZM54.7109 34.3418C49.8779 42.0688 46.9899 47.3628 46.9899 48.4948C46.9899 49.2028 48.7249 49.6568 51.4349 49.6568H55.8799L56.1849 54.4068C56.4049 57.8268 56.9099 59.1568 57.9899 59.1568C59.0699 59.1568 59.5749 57.8268 59.7949 54.4068C60.0089 51.0718 60.5299 49.6568 61.5449 49.6568C62.3399 49.6568 62.9899 48.9818 62.9899 48.1568C62.9899 47.3318 62.3339 46.6568 61.5319 46.6568C60.4069 46.6568 60.0069 44.9058 59.7819 38.9868C59.4399 30.0058 58.1579 28.8308 54.7109 34.3418ZM21.3109 34.2638C20.6389 36.0148 22.5039 37.6178 25.2399 37.6418C27.8639 37.6648 27.3459 35.1398 24.4559 33.8238C22.3539 32.8658 21.8179 32.9408 21.3109 34.2638ZM55.9899 43.6568C55.9899 46.0028 55.5479 46.6568 53.9639 46.6568C52.0349 46.6568 52.0129 46.5138 53.4899 43.6568C54.3429 42.0068 55.2549 40.6568 55.5159 40.6568C55.7769 40.6568 55.9899 42.0068 55.9899 43.6568ZM18.9899 45.1568C18.9899 46.1568 19.9899 46.6568 21.9899 46.6568C23.9899 46.6568 24.9899 46.1568 24.9899 45.1568C24.9899 44.1568 23.9899 43.6568 21.9899 43.6568C19.9899 43.6568 18.9899 44.1568 18.9899 45.1568ZM65.6839 44.2958C64.4739 45.5068 66.1139 46.6568 69.0489 46.6568C70.9969 46.6568 71.9899 46.1498 71.9899 45.1568C71.9899 43.6448 67.0149 42.9658 65.6839 44.2958ZM44.6289 65.3508C43.2989 66.6818 43.9779 71.6568 45.4899 71.6568C46.4829 71.6568 46.9899 70.6638 46.9899 68.7158C46.9899 65.7808 45.8399 64.1408 44.6289 65.3508Z" fill="white"/>
</svg>
