<svg width="84" height="92" viewBox="0 0 84 92" fill="none" xmlns="http://www.w3.org/2000/svg">
<path fill-rule="evenodd" clip-rule="evenodd" d="M33.3878 2.9241C31.0118 5.4041 29.7178 5.9241 25.9228 5.9241C20.7448 5.9241 16.8878 8.0821 16.8878 10.9781C16.8878 12.0451 18.3978 14.6071 20.2438 16.6711C24.5428 21.4791 25.8878 24.0971 25.8878 27.6571C25.8878 30.0381 25.2808 30.7421 22.2968 31.8211C16.9588 33.7511 6.73778 44.3461 3.38478 51.4241C1.20578 56.0261 0.448782 59.2881 0.137782 65.4241C-0.229218 72.6741 -0.00221848 73.9401 2.55978 78.9241C7.68078 88.8851 16.8758 91.9241 41.8878 91.9241C66.9058 91.9241 76.1048 88.8831 81.2048 78.9241C83.7228 74.0071 83.9878 72.5761 83.7048 65.4241C83.4568 59.1721 82.7928 56.2121 80.6628 51.8761C77.7418 45.9281 69.5338 37.1241 63.2478 33.1951L59.3878 30.7831L62.8878 31.4321C64.8128 31.7891 67.6068 32.9461 69.0978 34.0031C72.5928 36.4811 74.8878 36.4581 74.8878 33.9441C74.8878 32.6171 73.1568 30.9401 69.6378 28.8571C64.5498 25.8461 64.4958 25.7681 67.8878 26.3301C69.8128 26.6491 72.6248 27.1911 74.1378 27.5341C76.4128 28.0501 76.8878 27.8191 76.8878 26.2011C76.8878 21.8731 66.5528 20.5311 59.1378 23.8971L54.8878 25.8261V23.2651C54.8878 21.8561 56.2748 18.1011 57.9708 14.9191C59.6668 11.7371 60.9048 8.0741 60.7208 6.7791C60.4098 4.5811 59.9538 4.4241 53.8798 4.4241C48.6498 4.4241 46.8068 3.9821 44.4948 2.1741C40.4958 -0.953896 36.8678 -0.708896 33.3878 2.9241ZM50.1708 9.1781C53.4398 9.0481 53.8628 9.2501 52.8568 10.4621C52.1998 11.2531 50.1358 12.8431 48.2708 13.9971L44.8778 16.0931L41.8058 13.5091C37.9868 10.2951 36.8018 10.2841 33.0698 13.4241C29.3738 16.5341 27.8338 16.5601 25.0148 13.5591L22.7928 11.1941L27.8928 10.5181C31.5988 10.0261 33.8398 9.0321 36.0918 6.8801L39.1908 3.9181L42.7408 6.6251C45.3368 8.6051 47.3328 9.2911 50.1708 9.1781ZM40.4798 18.0261C42.0228 19.7311 43.1988 20.0361 46.6978 19.6421C50.2018 19.2471 50.9068 19.4311 50.4508 20.6221C50.1408 21.4281 49.8878 23.8181 49.8878 25.9341C49.8878 29.7691 49.8718 29.7841 44.5178 30.9821C40.9868 31.7731 37.8558 31.8791 35.3748 31.2921C31.9088 30.4721 31.4968 29.9961 30.2898 25.4121C29.5668 22.6691 28.9558 20.3111 28.9318 20.1741C28.9078 20.0371 29.6758 19.9141 30.6378 19.9021C31.5998 19.8901 33.5128 19.0001 34.8878 17.9241C38.0228 15.4711 38.1708 15.4741 40.4798 18.0261ZM63.1548 38.6181C71.2418 44.2031 77.7728 54.0281 79.4108 63.0721C79.7748 65.0781 79.5628 69.1741 78.9398 72.1731C76.8968 82.0151 70.9998 85.4401 53.3138 87.0571C40.0778 88.2661 21.3178 86.9661 15.2118 84.4151C9.14178 81.8801 6.11078 78.3161 4.84778 72.2301C3.46878 65.5891 4.20378 60.8781 7.80678 53.2601C12.9548 42.3751 25.4078 32.6501 31.3208 34.8991C34.9828 36.2911 44.6058 36.0951 48.8878 34.5411C52.9218 33.0771 56.6918 34.1541 63.1548 38.6181ZM38.8878 43.9241C38.8878 45.0611 38.2208 45.9241 37.3428 45.9241C34.2628 45.9241 30.8878 50.5871 30.8878 54.8401C30.8878 59.8711 33.3658 62.3591 39.9478 63.9381C45.6408 65.3041 47.1498 66.7891 46.7098 70.5951C46.0658 76.1811 36.6488 76.4011 34.5648 70.8791C33.2938 67.5111 29.8878 66.7601 29.8878 69.8471C29.8878 72.2281 34.2928 77.6001 36.9318 78.4381C38.0078 78.7791 38.8878 79.7031 38.8878 80.4911C38.8878 81.2791 39.7878 81.9241 40.8878 81.9241C41.9878 81.9241 42.8878 81.3041 42.8878 80.5451C42.8878 79.7871 44.2558 78.6001 45.9278 77.9081C49.7868 76.3091 51.8878 73.3191 51.8878 69.4241C51.8878 64.6811 49.4278 62.1341 43.0908 60.3181C36.4758 58.4211 34.8878 57.3671 34.8878 54.8731C34.8878 49.8591 42.6268 48.0701 45.4798 52.4241C46.9708 54.7001 50.8928 55.9701 50.8838 54.1741C50.8748 52.3181 46.8258 47.0391 44.9568 46.4461C43.8048 46.0801 42.8878 44.9321 42.8878 43.8571C42.8878 42.5911 42.1978 41.9241 40.8878 41.9241C39.5548 41.9241 38.8878 42.5911 38.8878 43.9241Z" fill="white"/>
</svg>
