<svg width="96" height="72" viewBox="0 0 96 72" fill="none" xmlns="http://www.w3.org/2000/svg">
<path fill-rule="evenodd" clip-rule="evenodd" d="M0 36V72H48H96V36V0H48H0V36ZM92 36V68H48H4V36V4H48H92V36ZM28 9.793C28 11.267 27.137 12.031 24.926 12.516C20.965 13.386 15.08 18.565 13.351 22.702C7.049 37.786 22.214 52.951 37.298 46.649C41.435 44.92 46.614 39.035 47.484 35.074C47.969 32.863 48.733 32 50.207 32C52.06 32 52.209 31.528 51.776 27.025C51.19 20.924 47.489 15.014 41.967 11.359C39.485 9.717 36.051 8.519 32.975 8.224C28.472 7.791 28 7.94 28 9.793ZM38.996 15.118C42.713 17.207 47 23.242 47 26.386C47 27.728 45.735 28 39.5 28H32V20.5C32 11.952 32.576 11.51 38.996 15.118ZM62 18C62 19.867 62.667 20 72 20C81.333 20 82 19.867 82 18C82 16.133 81.333 16 72 16C62.667 16 62 16.133 62 18ZM28 24.5V32H35.5C43.52 32 43.919 32.323 41.551 36.901C37.101 45.506 23.949 45.665 18.379 37.181C14.584 31.398 16.916 21.746 22.893 18.497C27.597 15.94 28 16.415 28 24.5ZM62 30C62 31.867 62.667 32 72 32C81.333 32 82 31.867 82 30C82 28.133 81.333 28 72 28C62.667 28 62 28.133 62 30ZM62 42C62 43.867 62.667 44 72 44C81.333 44 82 43.867 82 42C82 40.133 81.333 40 72 40C62.667 40 62 40.133 62 42ZM44 54.5C44 55.767 41.667 56 29 56C14.667 56 14 56.089 14 58C14 59.911 14.667 60 29 60C41.667 60 44 60.233 44 61.5C44 62.333 44.889 63 46 63C47.733 63 48 62.333 48 58C48 53.667 47.733 53 46 53C44.889 53 44 53.667 44 54.5ZM52 58C52 59.911 52.667 60 67 60C81.333 60 82 59.911 82 58C82 56.089 81.333 56 67 56C52.667 56 52 56.089 52 58Z" fill="white"/>
</svg>
