<svg width="72" height="92" viewBox="0 0 72 92" fill="none" xmlns="http://www.w3.org/2000/svg">
<path fill-rule="evenodd" clip-rule="evenodd" d="M23.9645 1.75878C11.1855 6.50278 1.94951 18.0718 0.203512 31.5218C-1.02849 41.0158 3.28851 52.6588 14.3725 69.7308C21.2855 80.3778 32.3505 91.8628 35.6965 91.8628C39.0425 91.8628 50.1075 80.3778 57.0205 69.7308C68.1045 52.6588 72.4215 41.0158 71.1895 31.5218C69.6795 19.8938 61.2605 8.18778 50.8225 3.20478C43.2085 -0.430223 31.5525 -1.05822 23.9645 1.75878ZM45.9985 6.30678C60.0575 11.3218 68.8835 26.5108 65.7855 40.3568C64.2065 47.4128 57.2015 61.5708 50.9395 70.3628C44.8095 78.9708 37.5185 86.8628 35.6965 86.8628C33.8745 86.8628 26.5835 78.9708 20.4535 70.3628C14.1915 61.5708 7.18651 47.4128 5.60751 40.3568C2.50951 26.5108 11.3355 11.3218 25.3945 6.30678C30.2805 4.56378 41.1125 4.56378 45.9985 6.30678ZM29.6965 19.5308C23.4455 22.1028 18.7455 29.1048 18.7345 35.8628C18.7285 39.9868 22.1365 46.3888 25.7735 49.0848C31.2425 53.1378 40.0745 53.1538 45.6195 49.1208C48.9035 46.7318 52.7035 39.3428 52.6745 35.4008C52.6415 30.8258 49.3375 24.4558 45.6285 21.8148C42.3135 19.4538 33.0955 18.1328 29.6965 19.5308ZM42.6965 25.8078C46.3785 28.3818 47.8365 31.7848 47.3535 36.6748C46.2755 47.5968 33.3615 51.1958 26.1215 42.5918C23.8585 39.9018 23.5475 38.7648 23.9455 34.6258C24.8905 24.7928 34.6695 20.1938 42.6965 25.8078Z" fill="white"/>
</svg>
