<svg width="80" height="80" viewBox="0 0 80 80" fill="none" xmlns="http://www.w3.org/2000/svg">
<path fill-rule="evenodd" clip-rule="evenodd" d="M28.2838 1.13448C13.1748 6.05848 1.43875 20.3765 0.236754 35.3515C-0.237246 41.2525 -0.122246 41.7405 1.73175 41.7405C3.39075 41.7405 3.85775 40.8565 4.41475 36.6555C6.23075 22.9685 14.9398 11.2265 26.6328 6.69948C33.9048 3.88448 44.3208 3.61248 51.4978 6.04948C56.8968 7.88348 65.3958 13.8585 67.7708 17.4905C69.2358 19.7315 69.2188 19.7405 63.6198 19.7405C58.6648 19.7405 57.9978 19.9775 57.9978 21.7405C57.9978 23.6075 58.6648 23.7405 67.9978 23.7405H77.9978V13.7405C77.9978 4.40748 77.8648 3.74048 75.9978 3.74048C74.1898 3.74048 73.9978 4.40748 73.9978 10.6805V17.6205L68.8368 12.1645C65.6478 8.79248 61.1988 5.48748 57.1888 3.51348C51.5638 0.744477 49.4918 0.282477 41.5998 0.0404772C35.8578 -0.135523 30.9428 0.268477 28.2838 1.13448ZM25.6528 23.5695C23.5518 25.8905 23.4968 32.5795 25.5548 35.5175C27.4768 38.2625 32.0308 38.4665 34.3428 35.9115C36.6718 33.3375 36.5638 25.5635 34.1688 23.3955C31.7538 21.2095 27.7138 21.2925 25.6528 23.5695ZM38.2478 38.1255C32.6098 47.1365 27.9978 55.2365 27.9978 56.1245C27.9978 57.0135 28.7858 57.7405 29.7478 57.7395C31.6488 57.7385 51.9978 26.2925 51.9978 23.3565C51.9978 22.4675 51.2098 21.7405 50.2478 21.7415C49.0698 21.7425 45.1468 27.0985 38.2478 38.1255ZM31.4978 29.8235C31.4978 32.1945 31.0388 33.2405 29.9978 33.2405C28.3968 33.2405 27.4598 29.5855 28.4188 27.0845C29.4338 24.4415 31.4978 26.2785 31.4978 29.8235ZM75.4728 42.9905C73.6028 56.7725 65.0468 68.2895 53.3628 72.7495C46.0298 75.5495 35.5708 75.8365 28.4978 73.4325C23.0978 71.5965 14.5988 65.6215 12.2248 61.9905C10.7598 59.7495 10.7768 59.7405 16.3758 59.7405C21.3308 59.7405 21.9978 59.5035 21.9978 57.7405C21.9978 55.8735 21.3308 55.7405 11.9978 55.7405H1.99775V65.7405C1.99775 75.0735 2.13075 75.7405 3.99775 75.7405C5.80575 75.7405 5.99775 75.0735 5.99775 68.8005V61.8605L11.1588 67.3165C14.3718 70.7145 18.7978 73.9935 22.8878 76.0065C29.0298 79.0305 30.1388 79.2405 39.9768 79.2405C49.3138 79.2405 51.1448 78.9375 56.2508 76.5445C69.0438 70.5495 78.7018 57.2915 79.7458 44.2945C80.2358 38.1895 80.1318 37.7405 78.2288 37.7405C76.5208 37.7405 76.0688 38.6025 75.4728 42.9905ZM45.6528 43.5695C43.5518 45.8905 43.4968 52.5795 45.5548 55.5175C47.4768 58.2625 52.0308 58.4665 54.3428 55.9115C56.6718 53.3375 56.5638 45.5635 54.1688 43.3955C51.7538 41.2095 47.7138 41.2925 45.6528 43.5695ZM51.4978 49.8235C51.4978 52.1945 51.0388 53.2405 49.9978 53.2405C48.3968 53.2405 47.4598 49.5855 48.4188 47.0845C49.4338 44.4415 51.4978 46.2785 51.4978 49.8235Z" fill="white"/>
</svg>
